<?xml version="1.0" encoding="utf-8"?>
<!-- Generator: Adobe Illustrator 19.0.0, SVG Export Plug-In . SVG Version: 6.00 Build 0)  -->
<svg version="1.1" id="Layer_1" xmlns="http://www.w3.org/2000/svg" xmlns:xlink="http://www.w3.org/1999/xlink" x="0px" y="0px"
	 viewBox="-72 215.3 466 362.7" style="enable-background:new -72 215.3 466 362.7;" xml:space="preserve">
<style type="text/css">
	.st0{fill:none;}
	.st1{enable-background:new    ;}
	.st2{fill:#AA1300;}
</style>
<g>
	<path d="M-23.5,453c-0.3,0.9-0.9,1.6-1.7,2c0,0,0,0,0,0.1c1.5-0.7,3.1-1.3,4.5-2.1l0,0c0-0.1,0.1-0.1,0.1-0.2
		C-21.5,453-22.5,453-23.5,453z"/>
	<path d="M341.3,376.6c-4.5-2.3-5.3-5.1-2.7-9.4c0.1-0.1,0.1-0.2,0.2-0.3c-0.8-0.9-1.5-1.9-2.2-2.9c-0.2-0.3-0.6-0.9-1-1.5
		c-0.1-0.1-0.1-0.1-0.2-0.2c-0.5-0.6-1.1-1.1-1.6-1.7c-0.1,0.1-0.1,0.1-0.2,0.2c-3.7,2.8-5.4,2.4-8.5-0.9c-1.7-1.9-4.1-3.1-6.1-4.8
		c-1.6-1.3-3-2.8-4.5-4.2c-0.9,0-1.8-0.1-2.6-0.1c-2-3.3-4.4-5.8-10.1-3.3c0.3-0.6,0.5-1.2,0.8-1.8c-2.7-0.3-5.4-0.6-8-0.8
		c-0.3,0.5-0.5,1.1-0.8,1.6c2.1,0.3,4,0.6,5.8,0.9c0,0.6,0.1,1.2,0.1,1.7c-11.3,2.1-22.5,4.2-34.8,6.5c3.8-2.3,6.7-4.1,9.6-5.8
		c-0.2-0.4-0.3-0.7-0.5-1.1c-0.9,0.3-2,0.4-2.7,1c-4.2,3.1-8.2,1.8-12.2-0.3c-4.2-2.2-8.3-1.6-12.5-0.2h0.1
		c-1.1,0.9-2.3,1.7-3.4,2.6l-0.2-0.1c-1.5,0.3-3,0.8-4.6,0.9c-5.6,0.4-8.8,4.6-11.5,8.4c-1.8,2.5-3-1.9-4.4-0.7
		c1.6-2.2,3.3-4.3,4.9-6.5c-0.2-0.3-0.4-0.7-0.5-1c-2.1,0.6-4.2,1-6.2,1.8c-3.2,1.2-5.3,0.2-4.4-3.1c2.1-8.3,1.9-17.3,7.1-24.6
		c0.8-1.1,3.7-1,5.6-0.7c2.4,0.3,4.6,1.4,6.9,2.2l0.6-2.1c-3.9-1.1-7.8-2.2-11.1-3.1c-2.5-4.1-5.1-8.2-7.6-12.4
		c-1.2-2.1-2.1-4.4-3.3-6.5c-0.9-1.6-2-3-3-4.6c-0.8-1.4-1.6-2.8-2.2-4.3c-1.2-3.2-2.3-6.4-3.4-9.5c-0.1,0,0.7,0.1,2.4,0.2
		c-2.3-4.5-4.3-8.6-6.3-12.7c0.1,0,0.2-0.1,0.3-0.1c-0.5-1.6-0.7-3.4-1.6-4.7c-3.9-5.8-7.7-11.8-12.3-17.1
		c-2.7-3.1-6.6-5.7-10.4-7.2c-5.2-2-10.8-2.7-16.2-4c-0.1,0.3,0.1-0.3,0.2-0.8c-5.9,0.5-12.1-1.6-16.2,2.7v9.6
		c-4.5-0.2-8.1-0.4-12.6-0.6c0-0.9-0.6-3.4,0.1-3.8c1.5-0.9,3.7-0.7,6.5-1.1c0.8-0.6,2.5-1.8,3.7-2.6c-3.5-1-6.8-2.7-10.1-2.5
		c-2.8,0.1-5.4-0.1-8.1-0.7c-3.4-0.7-7-1-10.5-1.2c-1.8-0.1-1.9,2.5-4,3c-4.6,1.1-8.9,3.1-13.3,4.8c-0.7,0.3-1.4,1.1-1.6,1.8
		c-0.7,2.5-2.2,3.9-4.6,4.5c-0.6,0.1-1.1,1.3-1.3,2c-0.6,1.8-1.2,3.6-1.6,5.5c-1.5,6.2-6.3,11.5-4.5,18.5c0.4,1.6-0.1,3.5,0.1,5.2
		c0.1,1.2,0.9,2.3,1.1,3.5c0.4,2.6,0.6,5.2,0.9,7.8c1.7-1.6,3.5-3.3,5.3-5c-4.9,7.5-6.9,15.8-7.7,24.4c0.1,3.1,0.1,6.2,0.2,9.4
		c-2.3,2.6-3.5,5.5-1.9,9.1c-4.2-3.5-1.2-8.9-4-14.1c-0.6,4.5-1.1,8.1-1.5,11.6c-0.3,0-0.6,0.1-0.9,0.1c-0.2-1.5-0.4-3-0.6-4.6
		c-1.3-0.5-3.1-1.2-4.8-1.8c0.2-2.1,0.4-3.8,0.6-5.2c-1.9,0.8-3.7,1.1-4.8,2c-1,0.8-1.8,2.4-2,3.7c-0.5,4.9-0.8,9.8-1.1,14.7
		c-0.1,0.8-0.1,1.9,0.3,2.5c3.5,4.8,2.6,10.2,2.4,15.6c-0.1,1.4,0,3.6,0.7,4c4.1,2.4,1.7,4.1-0.3,5.7c0.6,1.4,1.1,2.6,1.8,4.5
		c0.3,0.1,1.5,0.3,3.2,0.7c-1.4,7.5-2.4,14.9-4.3,22c-0.4,1.6-3.8,2.7-6,3.3c-2.9,0.9-6.2,0.6-8.2,3.8c-0.4,0.7-1.8,0.8-2.9,1.3
		c0.7,0.6,1.1,1,1.4,1.2c-1.8,0.9-3.7,1.8-5.5,2.7c0,0,0,0,0-0.1c-3.5,0.3-7,0.6-10.9,0.9c-0.7-4.6-5.3-5.3-8.7-4.5
		c-3.4,0.8-4.5,4.9-3.7,8.7c-1.6,0.6-3.2,1.2-4.8,1.8v0.1c-2.6,2.4-3.3,6.7-7.5,7.5c-0.5,0.1-1.2-1-1.8-1.1
		c-1.2-0.1-2.6-0.3-3.5,0.3c-2.6,1.8-5,3.9-7.8,6.2c1.1,0.1,2,0.4,2.8,0.2c2.9-0.6,7.6,1.5,7.9,3.9c0.3,3.4-0.6,6-4.6,7.2
		c-4.1,1.2-7.9,3.5-12,5.4c-0.3,1.5-0.4,2.6-1,3.5c0,2.1-0.5,4.3-1.2,6.4c1-0.2,2.1-0.3,3.1-0.4c3.4-0.3,6.7-1.9,10-2.8
		c0,0,0.2,0.2,0.2,0.3c-0.1,0.2-0.3,0.5-0.4,0.7c2.8,2.2,1.7,4.9,0.2,7c-2.7,3.7-5.1,7.5-5.7,12.2c-0.1,0.6-0.7,1.2-1.6,2.4
		c-0.3-1.3-0.4-1.9-0.4-2c-3.6,0.7-7.3,1.4-10.9,2.2c-0.2-0.4-0.4-0.8-0.6-1.1c6-6.8,12.1-13.6,18.1-20.4c-4.3,2.6-8.5,5.1-13.1,7.9
		c-0.1-0.1-0.5-0.8-0.8-1.4c-0.1,0-0.1,0-0.2,0c-0.4,0.8-0.8,1.6-1.2,2.4c-2.6,4.8-5.7,9.3-8.4,14c-0.4,0.8-0.8,1.6-1.3,2.4
		c-1.2,2-3.1,2.5-4.8,2c0,0.9,0.1,1.9,0.1,2.9c0.5,5.6-8.3,5.6-8.8,0c-0.2-2.3-0.2-4.7-0.1-7.1c-0.5,1.4-1,2.7-1.5,4.1
		c-0.4,1.4-0.8,2.8-1.2,4.1c-0.2,0.7-0.5,1.2-0.8,1.6c0,0.5,0.1,1.1,0.1,1.6h401.8v-92.2c-4.4-4.7-8.7-9.4-13.2-13.9
		C345.4,378.8,343.3,377.6,341.3,376.6z M8.5,465.9c-0.2-0.1-0.5-0.2-0.7-0.3c-0.6-2.1-1.2-4.2-1.9-6.8c1.2-0.1,2.4-0.2,4.3-0.3
		C9.5,461.3,9,463.6,8.5,465.9z M43.3,411.7c0.7-1.5,1.2-2.7,1.8-4c4,0.3,8,0.2,11.9,1c2,0.4,3.8,2.1,5.6,3.2
		C55.4,419,49.2,412.5,43.3,411.7z M218,405.6c0.5-0.8,1.2-2.1,2.2-3.9c2,1.5,3.9,2.9,5.7,4.2c4.5-0.7,1.1,3.2,2.7,4.5
		c0.1,0,0.5,0.2,0.9,0.4c1.5,0.7,2.9,1.4,4.4,2.1c-1,1.3-1.9,2.9-3.2,3.9c-1.4,1.1-3.1,1.8-4.7,2.7c-0.4,1.6-0.8,3.2-1.3,5.4
		c-1.9-1.8-3.3-3.1-4.7-4.5c-0.8-2-1.6-3.9-2.4-5.9c-2-2.9-4-5.7-6.8-9.6C213.6,405.3,215.5,405.4,218,405.6z M137.3,266.1
		c0.8,1.6,1.9,3.7,3,5.9c-4.4,2.2-4.5,2.9-9.8-3.2C132.3,268.1,134.4,267.3,137.3,266.1z M123,245.8c2.1,0.1,4.2,0.3,6.9,0.5
		c0.3,1.3,0.7,3,1,4.7c-0.4,0.3-0.7,0.6-1.1,0.9c-2.5-1.7-5-3.4-7.5-5.1C122.6,246.4,122.8,246.1,123,245.8z M98.9,466l0.1,0.1
		c-2.2-2.1-3.1-0.2-3.8,1.4c-2.8,6.5-6,7.2-10.8,2.4c-4.6,2.5-4.6,2.5-8.7-2.8c-0.7,1.2-1.3,2.2-2.3,3.8c-0.6-1.1-1.6-2-1.5-2.8
		c0.3-4.4-0.9-8.3-2.6-12.4c-1-2.6,0.3-6.2,1-9.3c0.7-3,2.4-5.8,3.1-8.8c1.3-5.8,6.7-7.1,10.5-10.1c0.2-0.2,2.3,1.5,2.8,2.6
		c0.4,0.9-0.2,2.3-0.5,4.9c3.2-1.9,5.2-3.1,7.4-4.4c2.1,3.2-0.8,9.8,5.9,11.7c-0.1,1.1-0.2,2.2-0.3,3.3c0.2,0.1,0.5,0.4,0.7,0.4
		c4.1-0.7,5.1,2,5.2,5c0.2,4.5,0.2,9.1-0.1,13.7c-0.1,1-1.8,2.2-3.1,2.6C101.2,467.5,99.9,466.4,98.9,466z M116.1,470.8
		c-3.1,4.4-7.9,1.4-11.9,2.2c-0.3-0.6-0.5-1.1-0.8-1.7c4.4-3.5,8.9-6.9,13.5-10.5C119.8,464.4,118.1,468,116.1,470.8z M182.1,408.7
		c-2,3.4-6.9,5.4-10.9,7.3c-9.3,4.3-18.7,3.3-27.9-0.9c-5.7-2.6-9.7-7-12.3-12.6c-2.7-5.8-5.2-11.6-5.2-18.2c0-0.7-0.3-1.4-0.7-2
		c-2.7-3.8-2.9-4.8-1.3-11c4.9,6.7,9.1,12.6,13.6,18.9c0.5-1.3,1-2.5,1.8-4.7c0.6,1.8,0.8,2.6,1.1,3.5c0.5-1.4,0.7-3,1.6-4
		c2.3-2.3,1.3-4.5,0.2-6.8c-0.6-1.2-1.7-2.1-2.1-3.3c-0.4-1.2-0.1-2.6-0.2-3.9c1.2,0.4,2.5,0.6,3.6,1.2c7.6,4.8,8.5,13,10.1,20.8
		c0.4,1.8,0.9,3.6,1.9,5.4c3.9-9.4,7-18.8,14.7-26.6c0,2.7,0,5.2,0,7.6c0,2-0.4,4-0.3,6c0.1,3.2,0.2,3.2,3.8,2.6
		c0.4-4.7,0.8-9.3,1.1-14l1.6-0.2c0.8,2,1.6,3.9,2.8,6.7c0.4-4.1,0.8-7.4,1.1-10.6c0.3,0,0.6,0,0.9,0v10.9c0.2,0,0.5,0,0.7,0
		c0.7-2.7,1.4-5.3,2.1-8c0.4,0.1,0.7,0.1,1.1,0.2C184.8,385,188.8,397.5,182.1,408.7z M189.5,334.1c-3.7-1.9-9-10.4-7.6-12.3
		c2.3-3.1,1-4.1-1.8-5.4c-0.4,1.5-0.7,2.7-0.9,3.5c-7.3,0-14.3,0-21.3,0c-0.4,0-0.9,0.6-1.3,0.9c-4.3,3.3-4.7,3.2-7.6-1.9
		c-1.4,0.5-2.8,1-4.5,1.5c3.6,8-2.8,13.1-5.8,19.7c-0.5-1-1.3-2-1.5-3.1c-1-4.9-1.8-9.9-2.6-14.8c-0.6-3.6,0.6-6.7,3.6-8.3
		c5-2.6,10.2-5.7,15.7-6.4c9.5-1.2,19.2-3.7,28.7,0.8c3.5,1.7,5.6,3.5,5.7,7.7c0.2,4.9,1.3,9.8,1.9,14.7
		C190.2,331.7,189.8,332.7,189.5,334.1z M187,304.3c0.3-0.5,0.6-0.9,0.9-1.4c-10.5,0.4-20.8-4.1-31.4,0.1c-6.4,2.5-13,4.5-19.5,7
		c-4.5,1.7-8.8,3.8-13.8,6c0.4-1.9,0.6-2.7,0.7-3.6c0.3-1.8,0.4-3.7,1-5.4c0.8-2.3,2.4-4.4,2.9-6.7c0.7-3.4-2.7-5.5-5.8-4.2
		c-1.8,0.8-3.7,1.3-6.4,2.2c0.8-2.7,1.3-4.4,2.1-6.9c-2.9,1.6-5.3,2.9-7.2,3.9c-4.2-1.8-8.3-3.6-12.4-5.4c-0.9-0.4-2.3-1.1-2.4-1.9
		c-0.7-3.2-1.2-6.4-1.3-9.7c-0.1-2.4,1-3.9,3.9-2.7c1.4,0.6,3.1,0.5,4.7,0.7c3.9,0.6,7.8,0.8,11.6,1.8c3.6,1,6.6,1.5,10.3-0.4
		c4.2-2.2,9.3-2.8,13.9-4.2c2-0.6,3.9-1.4,6.3-2.3c1,1.5,2.3,3.5,3.6,5.5c0.4-0.2,0.9-0.4,1.3-0.6c-0.5-2-1-4.1-1.8-7.2
		c1.8,0.9,3.5,1.2,3.6,1.8c0.6,5.6,3.8,4.1,7.3,2.2c-0.7,1.1-1,1.5-1.3,2c0.2,0.2,0.3,0.4,0.5,0.5c1.2-0.9,2.5-1.8,3.9-2.8
		c0.3,1,0.7,1.9,1,3.1c4.8-1.8,11.6,1.6,13.8-5.4c3.9-0.6,7.5-1.1,11.5-1.7c1,1.1,2.4,2.7,4.2,4.7c-0.5,2.3-1.1,5.2-1.8,8.1l0.1-0.1
		c0,0.4,0,0.8,0,1.2c-1.1,1.4-2.2,2.8-3.4,4.2c0.2,0.5,0.5,1,0.7,1.5c-1.6-0.5-3.2-1-5.2-1.7c1,3.8,1.4,7.5,4.3,11.1
		c2.5,3.2,3.2,7.9,4.8,11.9c-0.5,0.2-1.1,0.4-1.6,0.6C189.3,308.3,188.2,306.3,187,304.3z M242.7,459.1c-5.5,1.1-10.8,4-15.9,6.7
		c-3.2,1.7-5.8,2.4-9.4,1.1c-5.8-2.1-12.3-2.7-16.4,2.8c-1.9,2.6-3.4,3.4-6,3.3c-2.9-0.2-4.3-2.6-3.2-5.4c5.8,0.6,6.8-0.1,5.6-5.9
		c-0.8-4-0.2-5.7,3.6-5.1c0.3-1.3,0.4-3.3,0.7-3.4c5.6-0.7,3.6-4.8,3.8-7.9c0-0.4,0-0.8,0-1.3c5.9,0,1.7-3.7,2.1-5.7
		c5.9-3.6,5.9-3.6,7.7,3.2c2.3-3.9,5.2-4.6,9.4-3.1c4.6,1.6,9.7,2,14.5,2.9c5.7,1,7,6.1,10.2,10.3c-1.8,0.8-2.8,1.2-4.1,1.7
		C247.8,457,247.2,458.2,242.7,459.1z M264.2,368.4c0.2-0.4,0.3-0.8,0.5-1.2c3.1,0.4,7-1.6,8.6,4.7
		C269.8,370.5,267,369.4,264.2,368.4z M295.4,358c0.8-0.5,1.7-0.9,3.5-2c-5.5-1-10.4,3.9-15.3-1.6c8.5-2.4,16.4-6.9,25.2-0.9
		c-1.6,2.5-3.4,5.1-6.3,1.8c-2.5,1.2-4.7,2.2-6.9,3.3C295.6,358.5,295.5,358.2,295.4,358z M299.8,368.6c3.8-0.8,7.6-1.6,11.5-2.3
		c0.5-0.1,1.2,0.7,1.8,1.1C310.9,370.1,302.8,370.7,299.8,368.6z M352.2,473.4c-4.5-3.2-10.9-3.9-8.3-11.5c2.4,1,5.1,1.8,7.5,3.1
		C355.4,467.3,351.9,470.2,352.2,473.4z"/>
	<path d="M191.1,282.8L191.1,282.8C191.3,283.1,191.5,283.3,191.1,282.8z"/>
	<path d="M191.1,283C191.2,283.3,191.2,283.2,191.1,283L191.1,283z"/>
	<path d="M-25.1,456.8c0.7-0.1,1.3-0.2,2-0.2c0.2,0,0.4,0,0.6,0c0.3-0.5,0.6-1.1,1-1.7C-22.8,455.5-24,456.2-25.1,456.8z"/>
	<polygon points="4.4,452.2 4.6,452.1 4.5,451.8 	"/>
	<path d="M314.8,348.1c-0.9-0.3-1.8-0.6-2.6-0.9c-0.4,1-0.5,2.1-0.2,3.5c0.9,0,1.8,0.1,2.6,0.1c1.7,0.4,3.4,0.8,5.7,1.4
		c-0.2-0.7-0.4-1.2-0.5-1.7C318.1,349.7,316.3,349,314.8,348.1z"/>
	<path d="M83.4,324.8c-2.4-0.6-4.9-4.8-4.2-7.5c0.5-1.8,1.6-3.6,4-1.9C83.3,318.5,83.3,321.7,83.4,324.8z"/>
	<path d="M219.9,420.6c1.1-1.2,2.3-2.5,3.4-3.7c0.9,0.9,1.8,1.8,2.6,2.7c-0.4,1.6-0.8,3.2-1.3,5.4
		C222.6,423.2,221.2,421.9,219.9,420.6z"/>
	<path d="M16.5,413.3c-0.5-1-1-2-1.6-3.3c2.7,0.1,5.8-1.3,7,2.5c-1.6,0.6-3.2,1.2-4.8,1.8C16.9,414,16.7,413.7,16.5,413.3z"/>
	<path d="M99.1,466.1c0.1-1.7,0-3.4,0.2-5.1s0.5-3.3,0.9-5.6c3.4,6.8,3,9.2-1.3,10.6L99.1,466.1z"/>
	<path d="M16.5,413.3c0.2,0.3,0.4,0.7,0.6,1v0.1c-2.3,1-4.7,1.9-7.6,3.1C10.7,413.1,13.4,412.9,16.5,413.3z"/>
	<path d="M243,351.6l0.2,0.1L243,351.6z"/>
	<path d="M246.7,349.1l-0.2-0.4v0.4H246.7z"/>
	<path d="M4.4,452.2L4.4,452.2C4.6,452.1,4.4,452.2,4.4,452.2z"/>
	<path d="M150.9,291.6c-8,1.4-17.2,0.3-21.2-2.9C137.9,285.8,144.3,289.5,150.9,291.6z"/>
	<path d="M162.4,290.3c5.1-6.2,9-7.7,12.9-5.1C173,290.1,169,291.7,162.4,290.3z"/>
	<path d="M176.5,410.7c-8.2,6.1-17.3,6.6-27.4,3.2c1.8-0.9,3.6-1.8,5.6-2.8c-1.4-2.7,1-3.7,3.6-4.2c3.3-0.6,6.6-0.8,9.9-0.8
		c1,0,1.9,1.3,3,1.9C172.9,409,174.8,409.8,176.5,410.7L176.5,410.7z"/>
	<path d="M176.5,410.8c1.7-3.5,3.4-6.9,5.1-10.4C183.3,405.7,180,408.3,176.5,410.8C176.5,410.7,176.5,410.8,176.5,410.8z"/>
	<path d="M220.2,413.7c0.9-2.1,1.8-4.2,2.7-6.2c0.6,2.2,1.1,4.4,1.7,6.9C223.2,414.1,221.7,413.9,220.2,413.7z"/>
</g>
<rect x="-40" y="495.9" class="st0" width="470" height="246.4"/>
<g class="st1">
	<path d="M-23.1,515.3l12.7-25.4H6.5l-14.8,29.6l14.8,29.6h-16.9l-12.7-25.4v25.4H-40l0-59.2l16.9,0V515.3z"/>
	<path d="M10.8,540.7v-42.3l6.3-8.5h29.7l6.3,8.5v42.3l-6.4,8.5H17.1L10.8,540.7z M27.7,506.8v25.4h8.5l0-25.4H27.7z"/>
	<path d="M74.3,521.7v27.5H57.3l0-59.2l16.9,0v0l16.9,27.5l0-27.5l16.9,0v59.3H91.2v0L74.3,521.7z"/>
	<path d="M150.4,549.2h-31.7l-6.3-8.5v-42.3l6.3-8.5h31.8v16.9l-21.2,0v25.4h4.2v-12.7h16.9V549.2z"/>
</g>
<g class="st1">
	<path class="st2" d="M203.8,528v21.2h-16.9v-59.2h16.9v21.2h8.5v-21.2h16.9v59.2h-16.9V528H203.8z"/>
	<path class="st2" d="M233.5,489.9l16.9,0v59.3h-16.9L233.5,489.9z"/>
	<path class="st2" d="M254.6,511.1h38.1V528h-38.1V511.1z"/>
	<path class="st2" d="M296.9,489.9h42.3l-3.2,16.9h-22.2v4.2H335l-3.2,16.9h-18v21.2h-16.9L296.9,489.9z"/>
	<path class="st2" d="M343.5,489.9l16.9,0v59.3h-16.9L343.5,489.9z"/>
</g>
</svg>
